<?xml version="1.0" encoding="UTF-8"?>
<svg width="16px" height="16px" viewBox="0 0 16 16" version="1.1" xmlns="http://www.w3.org/2000/svg" xmlns:xlink="http://www.w3.org/1999/xlink">
    <title>任务栏/icon/显示桌面-收起</title>
    <g id="Icon" stroke="none" stroke-width="1" fill="none" fill-rule="evenodd">
        <g id="Icon-Sets" transform="translate(-261.000000, -208.000000)">
            <g id="任务栏" transform="translate(27.000000, 110.000000)">
                <g id="icon-显示桌面" transform="translate(226.000000, 90.000000)">
                    <g id="编组-6" transform="translate(8.000000, 7.000000)">
                        <g id="编组" transform="translate(0.000000, 1.000000)">
                            <g id="任务栏/icon/显示桌面-收起" transform="translate(0.000000, -1.000000)">
                                <rect id="矩形" fill="#D8D8D8" opacity="0" x="0" y="1" width="16" height="16"></rect>
                                <rect id="矩形" fill-opacity="0.65" fill="#262626" x="3" y="15.5" width="10" height="1.5" rx="0.5"></rect>
                                <path d="M16,5.5 L16,12.5 C16,13.6045695 15.1045695,14.5 14,14.5 L2,14.5 C0.8954305,14.5 1.3527075e-16,13.6045695 0,12.5 L0,5.5 C-1.3527075e-16,4.3954305 0.8954305,3.5 2,3.5 L3.5,3.5 C3.77614237,3.5 4,3.72385763 4,4 L4,4.5 C4,4.77614237 3.77614237,5 3.5,5 L2.5,5 C1.94771525,5 1.5,5.44771525 1.5,6 L1.5,12 C1.5,12.5522847 1.94771525,13 2.5,13 L13.5,13 C14.0522847,13 14.5,12.5522847 14.5,12 L14.5,6 C14.5,5.44771525 14.0522847,5 13.5,5 L12.5,5 C12.2238576,5 12,4.77614237 12,4.5 L12,4 C12,3.72385763 12.2238576,3.5 12.5,3.5 L14,3.5 C15.1045695,3.5 16,4.3954305 16,5.5 Z" id="路径" fill-opacity="0.65" fill="#262626" fill-rule="nonzero"></path>
                                <path d="M5.46156887,2.32241616 L9.43498605,6.29649351 L10.6068988,5.12458079 C10.8495554,4.88197129 11.2429413,4.88197129 11.4855744,5.12460435 C11.6020909,5.24112086 11.6675492,5.39915116 11.6675492,5.56393038 C11.6675492,5.56393038 11.6675492,5.56393038 11.6675492,5.56393038 L11.6675492,8.64971682 C11.6675492,9.20200157 11.2198339,9.64971682 10.6675492,9.64971682 L7.58176275,9.64971682 C7.58176275,9.64971682 7.58176275,9.64971682 7.58176275,9.64971682 C7.23860985,9.64971682 6.96042946,9.37153643 6.96042946,9.02838353 C6.96042946,8.86359569 7.02589117,8.70555714 7.14242939,8.58905017 L8.37498605,7.35649351 L8.37498605,7.35649351 L4.4009087,3.38307633 C4.20564655,3.18781418 4.20564655,2.8712317 4.4009087,2.67596955 L4.75446209,2.32241616 C4.94972423,2.12715401 5.26630672,2.12715401 5.46156887,2.32241616 Z" id="路径" fill="#262626" fill-rule="nonzero" transform="translate(7.961006, 5.912843) rotate(45.000000) translate(-7.961006, -5.912843) "></path>
                            </g>
                        </g>
                    </g>
                </g>
            </g>
        </g>
    </g>
</svg>