<?xml version="1.0" encoding="utf-8"?>
<!-- Generator: Adobe Illustrator 23.0.1, SVG Export Plug-In . SVG Version: 6.00 Build 0)  -->
<svg version="1.1" id="图层_2" xmlns="http://www.w3.org/2000/svg" xmlns:xlink="http://www.w3.org/1999/xlink" x="0px" y="0px"
	 width="16px" height="16px" viewBox="0 0 16 16" style="enable-background:new 0 0 16 16;" xml:space="preserve">
<style type="text/css">
	.st0{fill:#FFFFFF;}
	.st1{fill:#FFFFFF;enable-background:new    ;}
</style>
<g id="U盘">
	<g id="_16">
		<g>
			<path class="st0" d="M10,1v2H5V1H10 M11,0H4v4h7V0L11,0z"/>
		</g>
		<g>
			<path class="st0" d="M12,4v11H3V4H12 M13,3H2v13h11V3L13,3z"/>
		</g>
		<path class="st0" d="M4,5v9h7V5H4z M10.1,8.4H9.8V9c0,0.2-0.1,0.5-0.3,0.7C9.2,9.9,9,10.1,8.7,10.2c-0.2,0.1-0.8,0.3-0.8,0.3
			c-0.1,0.1-0.1,0.1-0.1,0.2v0.8v0.6c0.3,0.1,0.5,0.4,0.5,0.7c0,0,0,0,0,0c0,0.4-0.4,0.7-0.8,0.7c0,0,0,0,0,0
			c-0.4,0-0.8-0.3-0.8-0.7c0-0.3,0.3-0.6,0.6-0.7v-0.7c0-0.1,0-0.2-0.1-0.2l-1.7-0.8c-0.2-0.1-0.3-0.3-0.3-0.6V9.2
			C5,9.1,4.8,8.9,4.8,8.7c0,0,0,0,0,0c0-0.3,0.3-0.6,0.7-0.6c0,0,0,0,0,0c0.3,0,0.6,0.3,0.6,0.6c0,0.2-0.2,0.5-0.4,0.5v0.5
			c0,0.1,0,0.2,0.1,0.2c0.1,0.1,1.4,0.5,1.4,0.5V6.7H6.7l0.9-1.3l0.9,1.3H7.8v3.2c0,0,0.7-0.3,0.9-0.3c0.2-0.1,0.5-0.3,0.5-0.7V8.4
			H8.9V7.2h1.2V8.4z"/>
		<rect id="rect3767" x="6" y="2" class="st1" width="1" height="1"/>
		<rect id="rect3769" x="8" y="2" class="st1" width="1" height="1"/>
	</g>
</g>
</svg>
