<?xml version="1.0" encoding="UTF-8"?>
<svg width="16px" height="16px" viewBox="0 0 16 16" version="1.1" xmlns="http://www.w3.org/2000/svg" xmlns:xlink="http://www.w3.org/1999/xlink">
    <title>任务栏/icon/显示桌面-收起</title>
    <g id="Icon" stroke="none" stroke-width="1" fill="none" fill-rule="evenodd">
        <g id="Icon-Sets" transform="translate(-293.000000, -208.000000)">
            <rect fill="#FFFFFF" x="0" y="0" width="706" height="949"></rect>
            <g id="任务栏" transform="translate(27.000000, 110.000000)">
                <g id="icon-显示桌面备份" transform="translate(258.000000, 90.000000)">
                    <path d="M16,0 C24.836556,-1.623249e-15 32,7.163444 32,16 C32,24.836556 24.836556,32 16,32 C7.163444,32 1.082166e-15,24.836556 0,16 C-1.082166e-15,7.163444 7.163444,1.623249e-15 16,0 Z" id="矩形" fill="#2D3436" fill-rule="nonzero" opacity="0"></path>
                    <g id="任务栏/icon/显示桌面-显示" transform="translate(8.000000, 8.000000)">
                        <rect id="矩形" fill="#D8D8D8" opacity="0" x="0" y="0" width="16" height="16"></rect>
                        <rect id="矩形" fill-opacity="0.65" fill="#262626" fill-rule="nonzero" x="3" y="14.5" width="10" height="1.5" rx="0.5"></rect>
                        <path d="M16,4.5 L16,11.5 C16,12.6045695 15.1045695,13.5 14,13.5 L2,13.5 C0.8954305,13.5 1.3527075e-16,12.6045695 0,11.5 L0,4.5 C-1.3527075e-16,3.3954305 0.8954305,2.5 2,2.5 L3.5,2.5 C3.77614237,2.5 4,2.72385763 4,3 L4,3.5 C4,3.77614237 3.77614237,4 3.5,4 L2.5,4 C1.94771525,4 1.5,4.44771525 1.5,5 L1.5,11 C1.5,11.5522847 1.94771525,12 2.5,12 L13.5,12 C14.0522847,12 14.5,11.5522847 14.5,11 L14.5,5 C14.5,4.44771525 14.0522847,4 13.5,4 L12.5,4 C12.2238576,4 12,3.77614237 12,3.5 L12,3 C12,2.72385763 12.2238576,2.5 12.5,2.5 L14,2.5 C15.1045695,2.5 16,3.3954305 16,4.5 Z" id="路径" fill-opacity="0.65" fill="#262626" fill-rule="nonzero"></path>
                        <path d="M8.73245225,9.21902717 L8.73198543,3.2457465 L10.5357362,3.2457465 C10.7645132,3.24578727 10.9499737,3.06032685 10.9499737,2.83154982 C10.9499737,2.72168722 10.9063309,2.61632431 10.8286463,2.53863972 C10.8286463,2.53863972 10.8286463,2.53863972 10.8286463,2.53863972 L8.64666581,0.3566592 C8.25614152,-0.0338650919 7.62297654,-0.0338650919 7.23245225,0.3566592 L5.05047173,2.53863972 C5.05047173,2.53863972 5.05047173,2.53863972 5.05047173,2.53863972 C4.88870738,2.70040407 4.88870738,2.9626759 5.05047173,3.12444025 C5.12815371,3.20212223 5.23351309,3.24576352 5.343372,3.2457465 L7.23291906,3.2457465 L7.23291906,3.2457465 L7.23245225,9.21902717 C7.23245225,9.49516954 7.45630987,9.71902717 7.73245225,9.71902717 L8.23245225,9.71902717 C8.50859462,9.71902717 8.73245225,9.49516954 8.73245225,9.21902717 Z" id="路径" fill="#262626" fill-rule="nonzero"></path>
                    </g>
                </g>
            </g>
        </g>
    </g>
</svg>