<?xml version="1.0" encoding="utf-8"?>
<!-- Generator: Adobe Illustrator 24.0.0, SVG Export Plug-In . SVG Version: 6.00 Build 0)  -->
<svg version="1.1" id="云" xmlns="http://www.w3.org/2000/svg" xmlns:xlink="http://www.w3.org/1999/xlink" x="0px" y="0px"
	 viewBox="0 0 32 32" style="enable-background:new 0 0 32 32;" xml:space="preserve">
<style type="text/css">
	.st0{opacity:0.8;}
	.st1{opacity:0.8;fill:none;stroke:#000000;stroke-miterlimit:10;}
</style>
<title>32</title>
<g id="_32">
	<path class="st0" d="M18.3,14.8C16,10.6,16.7,5.5,20,2c-6,1.1-9.9,6.9-8.8,12.9c0.2,1.1,0.6,2.2,1.2,3.2c0.1,0.2,0.3,0.4,0.4,0.6
		c0.8-0.2,1.6-0.3,2.4-0.1c3.2,0.7,4.3,4.3,4.3,4.3c0.6,0.1,1.2,0.4,1.7,0.8c3.3,0.2,6.5-1,8.8-3.4C25.3,21.2,20.6,19,18.3,14.8z"/>
	<path id="_16" class="st1" d="M14.8,29.5H6.2c0,0-3.7,0.1-3.7-2.6c0-3.8,3.6-2.8,3.6-2.8c0.6-1.9,2.6-3,4.5-2.4
		c0.1,0,0.1,0,0.2,0.1c0.9-1,2.3-1.5,3.7-1.2c2.6,0.5,3.5,3.5,3.5,3.5c1.5,0.3,2.5,1.7,2.5,3.2c0,1.2-0.9,2.2-2.1,2.2
		c-0.1,0-0.2,0-0.3,0h-4.6"/>
</g>
</svg>
