<?xml version="1.0" encoding="utf-8"?>
<!-- Generator: Adobe Illustrator 24.0.0, SVG Export Plug-In . SVG Version: 6.00 Build 0)  -->
<svg version="1.1" id="云" xmlns="http://www.w3.org/2000/svg" xmlns:xlink="http://www.w3.org/1999/xlink" x="0px" y="0px"
	 viewBox="0 0 24 24" style="enable-background:new 0 0 24 24;" xml:space="preserve">
<style type="text/css">
	.st0{fill:#FFFFFF;}
	.st1{fill:none;stroke:#FFFFFF;stroke-miterlimit:10;}
</style>
<title>24</title>
<g id="_24">
	<path class="st0" d="M13.8,11.1C12,7.8,12.5,3.7,15.1,1c-4.7,0.9-7.8,5.4-6.9,10.1c0.1,0.8,0.4,1.5,0.7,2.2
		c0.7-0.4,1.6-0.5,2.4-0.3c2.5,0.5,3.3,3.3,3.3,3.3c1,0.2,1.8,0.9,2.2,1.9c2.3,0,4.6-1,6.2-2.7C19.3,16.2,15.6,14.4,13.8,11.1z"/>
	<path class="st1" d="M7.9,22.5H4.3c0,0-2.8,0.1-2.8-1.9c-0.1-1.3,0.9-2.4,2.1-2.5c0.2,0,0.5,0,0.7,0.1C4.5,17.6,5,17,5.6,16.6
		c0.7-0.4,1.6-0.5,2.4-0.2c0.7-0.8,1.8-1.1,2.9-0.9c1.3,0.4,2.3,1.4,2.7,2.7c1.1,0.2,2,1.2,1.9,2.4c0,1-0.8,1.8-1.9,1.9H6.4"/>
</g>
</svg>
