<?xml version="1.0" encoding="utf-8"?>
<!-- Generator: Adobe Illustrator 24.0.0, SVG Export Plug-In . SVG Version: 6.00 Build 0)  -->
<svg version="1.1" id="云" xmlns="http://www.w3.org/2000/svg" xmlns:xlink="http://www.w3.org/1999/xlink" x="0px" y="0px"
	 viewBox="0 0 32 32" style="enable-background:new 0 0 32 32;" xml:space="preserve">
<style type="text/css">
	.st0{fill:#FFFFFF;}
</style>
<title>24</title>
<g>
	<path class="st0" d="M24,2H8C4.7,2,2,4.7,2,8v16c0,3.3,2.7,6,6,6h16c3.3,0,6-2.7,6-6V8C30,4.7,27.3,2,24,2z M16.9,27H7.6
		c0,0,0,0-0.1,0c-0.3,0-1.8-0.1-2.6-0.9c-0.4-0.4-0.6-0.9-0.6-1.5c-0.1-1.5,1.1-2.9,2.6-3c0.1,0,0.3,0,0.4,0
		c0.3-0.5,0.8-1.1,1.3-1.4c0.8-0.4,1.7-0.6,2.5-0.4c0.8-0.7,1.9-1,3.1-0.8c1.4,0.4,2.5,1.5,3,2.8c1.3,0.4,2.1,1.6,2,2.9
		C19.3,25.9,18.3,26.9,16.9,27z M20.1,22.2c-0.4-1-1.2-1.7-2.2-1.9c0,0-0.8-2.8-3.3-3.3c-0.8-0.2-1.7-0.1-2.4,0.3
		c-0.3-0.7-0.6-1.4-0.7-2.2c-0.9-4.7,2.2-9.2,6.9-10.1c-2.6,2.7-3.1,6.8-1.3,10.1c1.8,3.3,5.5,5.1,9.2,4.4
		C24.7,21.2,22.4,22.2,20.1,22.2z"/>
	<path class="st0" d="M16.8,22.7l-0.3-0.1l-0.1-0.3c-0.3-1.1-1.2-2-2.4-2.4c-0.9-0.2-1.8,0.1-2.4,0.8L11.4,21l-0.3-0.1
		c-0.6-0.2-1.4-0.2-2,0.2c-0.5,0.3-0.9,0.8-1.1,1.3l-0.2,0.5l-0.5-0.3c-0.1,0-0.4,0-0.5,0c-0.9,0.1-1.7,1-1.6,2
		c0,0.4,0.1,0.6,0.3,0.9C6,26,7.1,26,7.5,26h9.3c0.8-0.1,1.4-0.6,1.4-1.3C18.3,23.6,17.6,22.9,16.8,22.7z"/>
</g>
</svg>
