<?xml version="1.0" encoding="utf-8"?>
<!-- Generator: Adobe Illustrator 24.0.0, SVG Export Plug-In . SVG Version: 6.00 Build 0)  -->
<svg version="1.1" id="图层_1" xmlns="http://www.w3.org/2000/svg" xmlns:xlink="http://www.w3.org/1999/xlink" x="0px" y="0px"
	 viewBox="0 0 24 24" style="enable-background:new 0 0 24 24;" xml:space="preserve">
<style type="text/css">
	.st0{opacity:0.57;}
	.st1{fill:#FFFFFF;}
</style>
<g class="st0">
	<g>
		<path class="st1" d="M12.5,6C8.9,6,6,8.9,6,12.5S8.9,19,12.5,19s6.5-2.9,6.5-6.5S16.1,6,12.5,6z M12.5,17C10,17,8,15,8,12.5
			c0-1.6,0.8-3,2.1-3.8C10,9,10,9.2,10,9.5c0,3,2.5,5.5,5.5,5.5c0.3,0,0.5,0,0.8-0.1C15.5,16.2,14.1,17,12.5,17z"/>
	</g>
	<path class="st1" d="M12.5,4L12.5,4C12.2,4,12,3.8,12,3.5v-2C12,1.2,12.2,1,12.5,1l0,0C12.8,1,13,1.2,13,1.5v2
		C13,3.8,12.8,4,12.5,4z"/>
	<path class="st1" d="M6.5,6.5L6.5,6.5C6.3,6.7,6,6.7,5.8,6.5L4,4.7C3.8,4.5,3.8,4.2,4,4l0,0c0.2-0.2,0.5-0.2,0.7,0l1.8,1.8
		C6.7,6,6.7,6.3,6.5,6.5z"/>
	<path class="st1" d="M4,12.5L4,12.5C4,12.8,3.8,13,3.5,13h-2C1.2,13,1,12.8,1,12.5l0,0C1,12.2,1.2,12,1.5,12h2
		C3.8,12,4,12.2,4,12.5z"/>
	<path class="st1" d="M6.5,18.5L6.5,18.5c0.2,0.2,0.2,0.5,0,0.7L4.7,21c-0.2,0.2-0.5,0.2-0.7,0l0,0c-0.2-0.2-0.2-0.5,0-0.7l1.8-1.8
		C6,18.3,6.3,18.3,6.5,18.5z"/>
	<path class="st1" d="M12.5,21L12.5,21c0.3,0,0.5,0.2,0.5,0.5v2c0,0.3-0.2,0.5-0.5,0.5l0,0c-0.3,0-0.5-0.2-0.5-0.5v-2
		C12,21.2,12.2,21,12.5,21z"/>
	<path class="st1" d="M18.5,18.5L18.5,18.5c0.2-0.2,0.5-0.2,0.7,0l1.8,1.8c0.2,0.2,0.2,0.5,0,0.7l0,0c-0.2,0.2-0.5,0.2-0.7,0
		l-1.8-1.8C18.3,19,18.3,18.7,18.5,18.5z"/>
	<path class="st1" d="M21,12.5L21,12.5c0-0.3,0.2-0.5,0.5-0.5h2c0.3,0,0.5,0.2,0.5,0.5l0,0c0,0.3-0.2,0.5-0.5,0.5h-2
		C21.2,13,21,12.8,21,12.5z"/>
	<path class="st1" d="M18.5,6.5L18.5,6.5c-0.2-0.2-0.2-0.5,0-0.7L20.3,4c0.2-0.2,0.5-0.2,0.7,0l0,0c0.2,0.2,0.2,0.5,0,0.7l-1.8,1.8
		C19,6.7,18.7,6.7,18.5,6.5z"/>
</g>
</svg>
