<?xml version="1.0" encoding="UTF-8"?>
<svg width="16px" height="16px" viewBox="0 0 16 16" version="1.1" xmlns="http://www.w3.org/2000/svg" xmlns:xlink="http://www.w3.org/1999/xlink">
    <title>矩形备份 7</title>
    <g id="Icon" stroke="none" stroke-width="1" fill="none" fill-rule="evenodd">
        <g id="Icon-Sets" transform="translate(-69.000000, -208.000000)">
            <g id="任务栏" transform="translate(27.000000, 110.000000)">
                <g id="bar-搜索" transform="translate(34.000000, 90.000000)">
                    <rect id="矩形" fill="#000000" fill-rule="nonzero" opacity="0" x="0" y="0" width="32" height="32" rx="4"></rect>
                    <rect id="矩形备份-7" fill="#D8D8D8" opacity="0" x="8" y="8" width="16" height="16" rx="1"></rect>
                    <path d="M15.2847506,9.75 C16.8131298,9.75 18.1968175,10.3694981 19.1984103,11.3710909 C20.2000032,12.3726838 20.8195013,13.7563715 20.8195013,15.2847506 C20.8195013,16.781086 20.2259033,18.1388499 19.2608186,19.1349201 L19.2608186,19.1349201 L21.8771525,21.7524727 L19.1349201,19.2608186 C18.1388499,20.2259033 16.781086,20.8195013 15.2847506,20.8195013 C13.7563715,20.8195013 12.3726838,20.2000032 11.3710909,19.1984103 C10.3694981,18.1968175 9.75,16.8131298 9.75,15.2847506 C9.75,13.7563715 10.3694981,12.3726838 11.3710909,11.3710909 C12.3726838,10.3694981 13.7563715,9.75 15.2847506,9.75 Z" id="路径" stroke="#333637" stroke-width="1.5" fill-rule="nonzero"></path>
                </g>
            </g>
        </g>
    </g>
</svg>