<?xml version="1.0" encoding="utf-8"?>
<!-- Generator: Adobe Illustrator 24.0.0, SVG Export Plug-In . SVG Version: 6.00 Build 0)  -->
<svg version="1.1" id="二稿" xmlns="http://www.w3.org/2000/svg" xmlns:xlink="http://www.w3.org/1999/xlink" x="0px" y="0px"
	 viewBox="0 0 32 32" style="enable-background:new 0 0 32 32;" xml:space="preserve">
<style type="text/css">
	.st0{fill:url(#SVGID_1_);}
	.st1{opacity:0.6;}
	.st2{fill:url(#SVGID_2_);}
	.st3{opacity:0.4;}
	.st4{fill:url(#SVGID_3_);}
	.st5{opacity:0.8;}
	.st6{fill:url(#SVGID_4_);}
	.st7{fill:url(#SVGID_5_);}
	.st8{fill:url(#SVGID_6_);}
	.st9{fill:#1F4CA7;}
	.st10{fill:url(#SVGID_7_);}
	.st11{fill:url(#SVGID_8_);}
	.st12{fill:url(#SVGID_9_);}
	.st13{fill:url(#SVGID_10_);}
	.st14{fill:url(#SVGID_11_);}
</style>
<g id="蓝色">
	<radialGradient id="SVGID_1_" cx="16" cy="10" r="15" gradientTransform="matrix(1 0 0 -1 0 26)" gradientUnits="userSpaceOnUse">
		<stop  offset="0.6" style="stop-color:#173C8F"/>
		<stop  offset="0.73" style="stop-color:#3584ED"/>
		<stop  offset="0.92" style="stop-color:#2F65DB"/>
		<stop  offset="1" style="stop-color:#004FA5"/>
	</radialGradient>
	<circle class="st0" cx="16" cy="16" r="15"/>
	<g class="st1">
		
			<radialGradient id="SVGID_2_" cx="50.5519" cy="316.1776" r="3.5156" gradientTransform="matrix(-3.000000e-02 1 -5.12 -0.15 1636.3999 2.04)" gradientUnits="userSpaceOnUse">
			<stop  offset="0.58" style="stop-color:#52BCFF"/>
			<stop  offset="1" style="stop-color:#52BCFF;stop-opacity:0"/>
		</radialGradient>
		<circle class="st2" cx="16" cy="16" r="13.1"/>
	</g>
	<g class="st3">
		
			<radialGradient id="SVGID_3_" cx="-715.2778" cy="478.5966" r="7.35" gradientTransform="matrix(-1.000000e-02 -1 4.92 -3.000000e-02 -2345.8701 -673.07)" gradientUnits="userSpaceOnUse">
			<stop  offset="0.58" style="stop-color:#1B45A1"/>
			<stop  offset="1" style="stop-color:#1B45A1;stop-opacity:0"/>
		</radialGradient>
		<circle class="st4" cx="16" cy="16" r="13.1"/>
	</g>
	<g class="st5">
		
			<linearGradient id="SVGID_4_" gradientUnits="userSpaceOnUse" x1="16" y1="23.5938" x2="16" y2="-3.5938" gradientTransform="matrix(1 0 0 -1 0 26)">
			<stop  offset="0" style="stop-color:#0AADFF"/>
			<stop  offset="1" style="stop-color:#52BCFF;stop-opacity:0.5"/>
		</linearGradient>
		<path class="st6" d="M16,2.9c7.2,0,13.1,5.9,13.1,13.1S23.2,29.1,16,29.1S2.9,23.2,2.9,16S8.8,2.9,16,2.9 M16,2.4
			C8.5,2.4,2.4,8.5,2.4,16S8.5,29.6,16,29.6S29.6,23.5,29.6,16S23.5,2.4,16,2.4z"/>
	</g>
	
		<linearGradient id="SVGID_5_" gradientUnits="userSpaceOnUse" x1="16" y1="23.5938" x2="16" y2="-3.5938" gradientTransform="matrix(1 0 0 -1 0 26)">
		<stop  offset="0" style="stop-color:#94F4FF"/>
		<stop  offset="0.3" style="stop-color:#52BCFF;stop-opacity:0"/>
	</linearGradient>
	<path class="st7" d="M16,2.9c7.2,0,13.1,5.9,13.1,13.1S23.2,29.1,16,29.1S2.9,23.2,2.9,16S8.8,2.9,16,2.9 M16,2.4
		C8.5,2.4,2.4,8.5,2.4,16S8.5,29.6,16,29.6S29.6,23.5,29.6,16S23.5,2.4,16,2.4z"/>
	<g class="st1">
		
			<linearGradient id="SVGID_6_" gradientUnits="userSpaceOnUse" x1="16" y1="-3.5" x2="16" y2="23.5" gradientTransform="matrix(1 0 0 -1 0 26)">
			<stop  offset="0" style="stop-color:#94F4FF"/>
			<stop  offset="0.3" style="stop-color:#52BCFF;stop-opacity:0"/>
		</linearGradient>
		<path class="st8" d="M16,3c7.2,0,13,5.9,13,13s-5.9,13-13,13S3,23.2,3,16S8.8,3,16,3 M16,2.5C8.6,2.5,2.5,8.6,2.5,16
			S8.6,29.5,16,29.5S29.5,23.4,29.5,16S23.4,2.5,16,2.5z"/>
	</g>
	<circle class="st9" cx="16" cy="16" r="10"/>
	
		<linearGradient id="SVGID_7_" gradientUnits="userSpaceOnUse" x1="16" y1="19" x2="16" y2="1" gradientTransform="matrix(1 0 0 -1 0 26)">
		<stop  offset="0" style="stop-color:#FFFFFF"/>
		<stop  offset="1" style="stop-color:#D1D2D3"/>
	</linearGradient>
	<circle class="st10" cx="16" cy="16" r="9"/>
	
		<linearGradient id="SVGID_8_" gradientUnits="userSpaceOnUse" x1="9.1494" y1="7.9778" x2="17.5511" y2="11.0423" gradientTransform="matrix(1 0 0 -1 0 26)">
		<stop  offset="0.25" style="stop-color:#1A4399"/>
		<stop  offset="0.61" style="stop-color:#0680E8"/>
		<stop  offset="0.76" style="stop-color:#0584ED"/>
		<stop  offset="1" style="stop-color:#3584ED"/>
	</linearGradient>
	<path class="st11" d="M15,17.6c0,0.4-0.3,0.9-2.1,0.9c-1.5,0-2-0.2-2-0.8c0-3.9-0.1-3.7-0.1-3.7H9c0,0,0,2.6,0,4
		c0.2,0.8,0.7,1.5,1.6,1.8c0.7,0.3,1.4,0.5,2.2,0.5c1.1,0,2-0.2,3-0.7c0.7-0.4,1.1-1.1,1.2-1.9V14h-2"/>
	
		<linearGradient id="SVGID_9_" gradientUnits="userSpaceOnUse" x1="10.6897" y1="5.8031" x2="10.6897" y2="12.0188" gradientTransform="matrix(1 0 0 -1 0 26)">
		<stop  offset="0.17" style="stop-color:#0584ED"/>
		<stop  offset="1" style="stop-color:#173C8F"/>
	</linearGradient>
	<path class="st12" d="M9,14h2v3.9c0,1.5,1.5,2.3,1.4,2.3c-1.1,0-3.4-0.7-3.4-2.3V14L9,14"/>
	
		<linearGradient id="SVGID_10_" gradientUnits="userSpaceOnUse" x1="22.5089" y1="5.2994" x2="18.205" y2="8.9093" gradientTransform="matrix(1 0 0 -1 0 26)">
		<stop  offset="0" style="stop-color:#0584ED"/>
		<stop  offset="0.58" style="stop-color:#0584ED"/>
		<stop  offset="0.97" style="stop-color:#173C8F"/>
	</linearGradient>
	<path class="st13" d="M18.2,17.4c0.2,0.2-0.1,0.8,0.5,1.3l1.7,1.5h2.5l-3.8-3.4l-0.4-0.5"/>
	
		<linearGradient id="SVGID_11_" gradientUnits="userSpaceOnUse" x1="17.4548" y1="8.4169" x2="23.2017" y2="11.7357" gradientTransform="matrix(1 0 0 -1 0 26)">
		<stop  offset="0" style="stop-color:#0584ED"/>
		<stop  offset="1" style="stop-color:#173C8F"/>
	</linearGradient>
	<path class="st14" d="M23,14h-2.7l-2.8,2.4c-0.3,0.3-0.4,0.8-0.1,1.1c0,0,0,0,0.1,0.1c0.4,0.4,0.8,0.7,1.2,1.1
		c-0.1-0.3-0.1-0.7-0.1-0.9c0.1-0.3,0.2-0.6,0.5-0.8C19.7,16.3,23,13.9,23,14"/>
</g>
</svg>
