<?xml version="1.0" encoding="utf-8"?>
<!-- Generator: Adobe Illustrator 23.0.1, SVG Export Plug-In . SVG Version: 6.00 Build 0)  -->
<svg version="1.1" id="图层_1" xmlns="http://www.w3.org/2000/svg" xmlns:xlink="http://www.w3.org/1999/xlink" x="0px" y="0px"
	 width="38px" height="38px" viewBox="0 0 38 38" style="enable-background:new 0 0 38 38;" xml:space="preserve">
<style type="text/css">
	.st0{fill:url(#SVGID_1_);}
	.st1{opacity:0.6;}
	.st2{fill:url(#SVGID_2_);}
	.st3{opacity:0.4;}
	.st4{fill:url(#SVGID_3_);}
	.st5{opacity:0.8;}
	.st6{fill:url(#SVGID_4_);}
	.st7{fill:url(#SVGID_5_);}
	.st8{fill:url(#SVGID_6_);}
	.st9{fill:#1F4CA7;}
	.st10{fill:url(#SVGID_7_);}
	.st11{fill:url(#SVGID_8_);}
	.st12{fill:url(#SVGID_9_);}
	.st13{fill:url(#SVGID_10_);}
	.st14{fill:url(#SVGID_11_);}
</style>
<g id="蓝色">
	<radialGradient id="SVGID_1_" cx="19" cy="19" r="16" gradientTransform="matrix(1 0 0 -1 0 38)" gradientUnits="userSpaceOnUse">
		<stop  offset="0.5973" style="stop-color:#173C8F"/>
		<stop  offset="0.7332" style="stop-color:#3584ED"/>
		<stop  offset="0.9189" style="stop-color:#2F65DB"/>
		<stop  offset="1" style="stop-color:#004FA5"/>
	</radialGradient>
	<circle class="st0" cx="19" cy="19" r="16"/>
	<g class="st1">
		
			<radialGradient id="SVGID_2_" cx="19.5307" cy="-1.4178" r="3.7509" fx="15.7798" fy="-1.4271" gradientTransform="matrix(-2.887411e-02 0.9996 -5.1234 -0.148 12.5076 -12.3573)" gradientUnits="userSpaceOnUse">
			<stop  offset="0.5757" style="stop-color:#52BCFF"/>
			<stop  offset="1" style="stop-color:#52BCFF;stop-opacity:0"/>
		</radialGradient>
		<circle class="st2" cx="19" cy="19" r="14"/>
	</g>
	<g class="st3">
		
			<radialGradient id="SVGID_3_" cx="41.0763" cy="18.4478" r="7.8404" gradientTransform="matrix(-6.982276e-03 -1 4.9226 -3.437161e-02 -71.5244 73.3765)" gradientUnits="userSpaceOnUse">
			<stop  offset="0.5757" style="stop-color:#1B45A1"/>
			<stop  offset="1" style="stop-color:#1B45A1;stop-opacity:0"/>
		</radialGradient>
		<circle class="st4" cx="19" cy="19" r="14"/>
	</g>
	<g class="st5">
		
			<linearGradient id="SVGID_4_" gradientUnits="userSpaceOnUse" x1="19" y1="33.5" x2="19" y2="4.5" gradientTransform="matrix(1 0 0 -1 0 38)">
			<stop  offset="0" style="stop-color:#0AADFF"/>
			<stop  offset="1" style="stop-color:#52BCFF;stop-opacity:0.5"/>
		</linearGradient>
		<path class="st6" d="M19,5c7.7,0,14,6.3,14,14s-6.3,14-14,14S5,26.7,5,19S11.3,5,19,5 M19,4.5C11,4.5,4.5,11,4.5,19
			S11,33.5,19,33.5S33.5,27,33.5,19S27,4.5,19,4.5L19,4.5z"/>
	</g>
	<g>
		
			<linearGradient id="SVGID_5_" gradientUnits="userSpaceOnUse" x1="19" y1="33.5" x2="19" y2="4.5" gradientTransform="matrix(1 0 0 -1 0 38)">
			<stop  offset="0" style="stop-color:#94F4FF"/>
			<stop  offset="0.3027" style="stop-color:#52BCFF;stop-opacity:0"/>
		</linearGradient>
		<path class="st7" d="M19,5c7.7,0,14,6.3,14,14s-6.3,14-14,14S5,26.7,5,19S11.3,5,19,5 M19,4.5C11,4.5,4.5,11,4.5,19
			S11,33.5,19,33.5S33.5,27,33.5,19S27,4.5,19,4.5L19,4.5z"/>
	</g>
	<g class="st1">
		
			<linearGradient id="SVGID_6_" gradientUnits="userSpaceOnUse" x1="19" y1="4.5" x2="19" y2="33.5" gradientTransform="matrix(1 0 0 -1 0 38)">
			<stop  offset="0" style="stop-color:#94F4FF"/>
			<stop  offset="0.3027" style="stop-color:#52BCFF;stop-opacity:0"/>
		</linearGradient>
		<path class="st8" d="M19,5c7.7,0,14,6.3,14,14s-6.3,14-14,14S5,26.7,5,19S11.3,5,19,5 M19,4.5C11,4.5,4.5,11,4.5,19
			S11,33.5,19,33.5S33.5,27,33.5,19S27,4.5,19,4.5L19,4.5z"/>
	</g>
	<circle class="st9" cx="19" cy="19" r="10.5"/>
	
		<linearGradient id="SVGID_7_" gradientUnits="userSpaceOnUse" x1="19" y1="28" x2="19" y2="9" gradientTransform="matrix(1 0 0 -1 0 38)">
		<stop  offset="0" style="stop-color:#FFFFFF"/>
		<stop  offset="1" style="stop-color:#D1D2D3"/>
	</linearGradient>
	<circle class="st10" cx="19" cy="19.5" r="9.5"/>
	<g>
		
			<linearGradient id="SVGID_8_" gradientUnits="userSpaceOnUse" x1="11.6097" y1="16.8884" x2="20.6303" y2="20.1716" gradientTransform="matrix(1 0 0 -1 0 38)">
			<stop  offset="0.2541" style="stop-color:#1A4399"/>
			<stop  offset="0.6135" style="stop-color:#0680E8"/>
			<stop  offset="0.7586" style="stop-color:#0584ED"/>
			<stop  offset="1" style="stop-color:#3584ED"/>
		</linearGradient>
		<path class="st11" d="M18.1,20.7c0,0.4-0.5,1-2.4,1c-1.6,0-2.2-0.2-2.2-0.8c0-4.2-0.1-4.1-0.1-4.1h-1.9c0,0,0,2.8,0,4.3
			c0,0.2,0.4,1.4,1.7,1.9c0.7,0.3,1,0.4,2.4,0.4s2.5-0.2,3.2-0.6c1-0.6,1.3-1.5,1.3-2c0-0.6,0-4,0-4H18"/>
		
			<linearGradient id="SVGID_9_" gradientUnits="userSpaceOnUse" x1="13.3022" y1="14.6879" x2="13.3022" y2="21.3158" gradientTransform="matrix(1 0 0 -1 0 38)">
			<stop  offset="0.1674" style="stop-color:#0584ED"/>
			<stop  offset="1" style="stop-color:#173C8F"/>
		</linearGradient>
		<path class="st12" d="M11.5,16.7h2.1c0,0,0,3.7,0,4.2c0,1.6,1.6,2.5,1.5,2.5c-1.2,0-3.6-0.7-3.6-2.5
			C11.5,19.8,11.5,16.7,11.5,16.7L11.5,16.7L11.5,16.7"/>
		
			<linearGradient id="SVGID_10_" gradientUnits="userSpaceOnUse" x1="25.917" y1="14.1317" x2="21.33" y2="17.9806" gradientTransform="matrix(1 0 0 -1 0 38)">
			<stop  offset="0" style="stop-color:#0584ED"/>
			<stop  offset="0.5799" style="stop-color:#0584ED"/>
			<stop  offset="0.9729" style="stop-color:#173C8F"/>
		</linearGradient>
		<path class="st13" d="M21.3,20.3c0.2,0.2-0.1,0.9,0.5,1.4c0.8,0.8,1.8,1.6,1.8,1.6h2.7l-4-3.6L22,19.2"/>
		
			<linearGradient id="SVGID_11_" gradientUnits="userSpaceOnUse" x1="20.5261" y1="17.516" x2="26.6518" y2="21.0527" gradientTransform="matrix(1 0 0 -1 0 38)">
			<stop  offset="0" style="stop-color:#0584ED"/>
			<stop  offset="1" style="stop-color:#173C8F"/>
		</linearGradient>
		<path class="st14" d="M26.5,16.7h-2.9c0,0-2.7,2.3-3,2.6c-0.3,0.3-0.4,0.8,0,1.2c0.4,0.4,0.9,0.8,1.3,1.2c0,0-0.2-0.5-0.1-1
			c0.1-0.4,0.4-0.8,0.5-0.9C22.8,19.2,26.5,16.7,26.5,16.7"/>
	</g>
</g>
</svg>
