<?xml version="1.0" encoding="utf-8"?>
<!-- Generator: Adobe Illustrator 23.0.1, SVG Export Plug-In . SVG Version: 6.00 Build 0)  -->
<svg version="1.1" id="多屏" xmlns="http://www.w3.org/2000/svg" xmlns:xlink="http://www.w3.org/1999/xlink" x="0px" y="0px"
	 width="24px" height="24px" viewBox="0 0 24 24" style="enable-background:new 0 0 24 24;" xml:space="preserve">
<style type="text/css">
	.st0{fill:#FFFFFF;}
</style>
<g>
	<polygon class="st0" points="20,11 20,12 21,12 21,20 13,20 13,19 12,19 12,20 4,20 4,12 5,12 5,11 4,11 4,3 12,3 12,4 13,4 13,2 
		3,2 3,11 3,12 3,21 12,21 13,21 22,21 22,11 	"/>
	<g>
		<path class="st0" d="M19,18H6V5h13V18z M7,17h11V6H7V17z"/>
	</g>
</g>
</svg>
