<?xml version="1.0" encoding="UTF-8"?>
<svg width="32px" height="32px" viewBox="0 0 32 32" version="1.1" xmlns="http://www.w3.org/2000/svg" xmlns:xlink="http://www.w3.org/1999/xlink">
    <title>任务栏/icon/多任务视图</title>
    <defs>
        <path d="M4.2819426,10 L5.7180574,10 C6.16381677,10 6.32545989,10.0464128 6.48842285,10.1335664 C6.65138581,10.2207199 6.7792801,10.3486142 6.86643365,10.5115771 C6.95358719,10.6745401 7,10.8361832 7,11.2819426 L7,20.7180574 C7,21.1638168 6.95358719,21.3254599 6.86643365,21.4884229 C6.7792801,21.6513858 6.65138581,21.7792801 6.48842285,21.8664336 C6.32545989,21.9535872 6.16381677,22 5.7180574,22 L4.2819426,22 C3.83618323,22 3.67454011,21.9535872 3.51157715,21.8664336 C3.34861419,21.7792801 3.2207199,21.6513858 3.13356635,21.4884229 C3.04641281,21.3254599 3,21.1638168 3,20.7180574 L3,11.2819426 C3,10.8361832 3.04641281,10.6745401 3.13356635,10.5115771 C3.2207199,10.3486142 3.34861419,10.2207199 3.51157715,10.1335664 C3.67454011,10.0464128 3.83618323,10 4.2819426,10 Z" id="path-1"></path>
        <filter x="-6.3%" y="-2.1%" width="112.5%" height="104.2%" filterUnits="objectBoundingBox" id="filter-2">
            <feOffset dx="0" dy="0.5" in="SourceAlpha" result="shadowOffsetInner1"></feOffset>
            <feComposite in="shadowOffsetInner1" in2="SourceAlpha" operator="arithmetic" k2="-1" k3="1" result="shadowInnerInner1"></feComposite>
            <feColorMatrix values="0 0 0 0 0.935281421   0 0 0 0 0.955791761   0 0 0 0 0.99339405  0 0 0 1 0" type="matrix" in="shadowInnerInner1"></feColorMatrix>
        </filter>
        <path d="M26.2819426,10 L27.7180574,10 C28.1638168,10 28.3254599,10.0464128 28.4884229,10.1335664 C28.6513858,10.2207199 28.7792801,10.3486142 28.8664336,10.5115771 C28.9535872,10.6745401 29,10.8361832 29,11.2819426 L29,20.7180574 C29,21.1638168 28.9535872,21.3254599 28.8664336,21.4884229 C28.7792801,21.6513858 28.6513858,21.7792801 28.4884229,21.8664336 C28.3254599,21.9535872 28.1638168,22 27.7180574,22 L26.2819426,22 C25.8361832,22 25.6745401,21.9535872 25.5115771,21.8664336 C25.3486142,21.7792801 25.2207199,21.6513858 25.1335664,21.4884229 C25.0464128,21.3254599 25,21.1638168 25,20.7180574 L25,11.2819426 C25,10.8361832 25.0464128,10.6745401 25.1335664,10.5115771 C25.2207199,10.3486142 25.3486142,10.2207199 25.5115771,10.1335664 C25.6745401,10.0464128 25.8361832,10 26.2819426,10 Z" id="path-3"></path>
        <filter x="-6.3%" y="-2.1%" width="112.5%" height="104.2%" filterUnits="objectBoundingBox" id="filter-4">
            <feOffset dx="0" dy="0.5" in="SourceAlpha" result="shadowOffsetInner1"></feOffset>
            <feComposite in="shadowOffsetInner1" in2="SourceAlpha" operator="arithmetic" k2="-1" k3="1" result="shadowInnerInner1"></feComposite>
            <feColorMatrix values="0 0 0 0 0.935281421   0 0 0 0 0.955791761   0 0 0 0 0.99339405  0 0 0 1 0" type="matrix" in="shadowInnerInner1"></feColorMatrix>
        </filter>
        <path d="M10.2819426,7 L21.7180574,7 C22.1638168,7 22.3254599,7.04641281 22.4884229,7.13356635 C22.6513858,7.2207199 22.7792801,7.34861419 22.8664336,7.51157715 C22.9535872,7.67454011 23,7.83618323 23,8.2819426 L23,23.7180574 C23,24.1638168 22.9535872,24.3254599 22.8664336,24.4884229 C22.7792801,24.6513858 22.6513858,24.7792801 22.4884229,24.8664336 C22.3254599,24.9535872 22.1638168,25 21.7180574,25 L10.2819426,25 C9.83618323,25 9.67454011,24.9535872 9.51157715,24.8664336 C9.34861419,24.7792801 9.2207199,24.6513858 9.13356635,24.4884229 C9.04641281,24.3254599 9,24.1638168 9,23.7180574 L9,8.2819426 C9,7.83618323 9.04641281,7.67454011 9.13356635,7.51157715 C9.2207199,7.34861419 9.34861419,7.2207199 9.51157715,7.13356635 C9.67454011,7.04641281 9.83618323,7 10.2819426,7 Z" id="path-5"></path>
        <filter x="-1.8%" y="-1.4%" width="103.6%" height="102.8%" filterUnits="objectBoundingBox" id="filter-6">
            <feOffset dx="0" dy="0.5" in="SourceAlpha" result="shadowOffsetInner1"></feOffset>
            <feComposite in="shadowOffsetInner1" in2="SourceAlpha" operator="arithmetic" k2="-1" k3="1" result="shadowInnerInner1"></feComposite>
            <feColorMatrix values="0 0 0 0 0.935281421   0 0 0 0 0.955791761   0 0 0 0 0.99339405  0 0 0 1 0" type="matrix" in="shadowInnerInner1"></feColorMatrix>
        </filter>
    </defs>
    <g id="Icon" stroke="none" stroke-width="1" fill="none" fill-rule="evenodd">
        <g id="Icon-Sets" transform="translate(-85.000000, -131.000000)">
            <rect fill="#FFFFFF" x="0" y="0" width="706" height="357"></rect>
            <g id="icon-任务视图-任务栏" transform="translate(85.000000, 131.000000)">
                <rect id="矩形备份-2" fill="#000000" opacity="0" x="0" y="0" width="32" height="32"></rect>
                <g id="矩形备份-17" opacity="0.649999976">
                    <use fill="#7385A6" fill-rule="evenodd" xlink:href="#path-1"></use>
                    <use fill="black" fill-opacity="1" filter="url(#filter-2)" xlink:href="#path-1"></use>
                </g>
                <g id="矩形备份-18" opacity="0.649999976">
                    <use fill="#7385A6" fill-rule="evenodd" xlink:href="#path-3"></use>
                    <use fill="black" fill-opacity="1" filter="url(#filter-4)" xlink:href="#path-3"></use>
                </g>
                <g id="矩形">
                    <use fill="#7385A6" fill-rule="evenodd" xlink:href="#path-5"></use>
                    <use fill="black" fill-opacity="1" filter="url(#filter-6)" xlink:href="#path-5"></use>
                </g>
            </g>
        </g>
    </g>
</svg>