<?xml version="1.0" encoding="utf-8"?>
<!-- Generator: Adobe Illustrator 24.2.1, SVG Export Plug-In . SVG Version: 6.00 Build 0)  -->
<svg version="1.1" id="icon_icon-任务视图-任务栏-深色主题"
	 xmlns="http://www.w3.org/2000/svg" xmlns:xlink="http://www.w3.org/1999/xlink" x="0px" y="0px" viewBox="0 0 32 32"
	 style="enable-background:new 0 0 32 32;" xml:space="preserve">
<style type="text/css">
	.st0{opacity:0.8;}
	.st1{opacity:0;fill-opacity:0;}
	.st2{fill:#1F2022;}
	.st3{opacity:0.65;fill:#1F2022;enable-background:new    ;}
</style>
<g id="任务栏_icon_程序切换" class="st0">
	<g id="任务栏_icon_程序切换-2">
		<rect id="矩形备份_2" class="st1" width="32" height="32"/>
		<path id="矩形" class="st2" d="M10,5h12c0.6,0,1,0.4,1,1v20c0,0.6-0.4,1-1,1H10c-0.6,0-1-0.4-1-1V6C9,5.4,9.4,5,10,5z"/>
		<path id="矩形备份" class="st3" d="M26,8h2c0.6,0,1,0.4,1,1v14c0,0.6-0.4,1-1,1h-2c-0.6,0-1-0.4-1-1V9C25,8.4,25.4,8,26,8z"/>
		<path id="矩形备份_3" class="st3" d="M4,8h2c0.6,0,1,0.4,1,1v14c0,0.6-0.4,1-1,1H4c-0.6,0-1-0.4-1-1V9C3,8.4,3.4,8,4,8z"/>
	</g>
</g>
</svg>
