<?xml version="1.0" encoding="utf-8"?>
<!-- Generator: Adobe Illustrator 24.0.0, SVG Export Plug-In . SVG Version: 6.00 Build 0)  -->
<svg version="1.1" id="图层_2_1_" xmlns="http://www.w3.org/2000/svg" xmlns:xlink="http://www.w3.org/1999/xlink" x="0px"
	 y="0px" viewBox="0 0 16 16" style="enable-background:new 0 0 16 16;" xml:space="preserve">
<style type="text/css">
	.st0{fill:#FFFFFF;}
</style>
<g id="U盘">
	<g id="_16">
		<g>
			<path class="st0" d="M10,1v2H5V1H10 M11,0H4v4h7V0L11,0z"/>
		</g>
		<g>
			<path class="st0" d="M12,14c0,0.6-0.4,1-1,1H4c-0.6,0-1-0.4-1-1V5c0-0.6,0.4-1,1-1h7c0.6,0,1,0.4,1,1V14z M4,3C2.9,3,2,3.9,2,5v9
				c0,1.1,0.9,2,2,2h7c1.1,0,2-0.9,2-2V5c0-1.1-0.9-2-2-2H4z"/>
		</g>
		<path class="st0" d="M4,5.5v8C4,13.8,4.2,14,4.5,14h6c0.3,0,0.5-0.2,0.5-0.5v-8C11,5.2,10.8,5,10.5,5h-6C4.2,5,4,5.2,4,5.5z
			 M10.1,8.4H9.8V9c0,0.2-0.1,0.5-0.3,0.7C9.2,9.9,9,10.1,8.7,10.2c-0.2,0.1-0.8,0.3-0.8,0.3c-0.1,0.1-0.1,0.1-0.1,0.2v0.8v0.6
			c0.3,0.1,0.5,0.4,0.5,0.7l0,0c0,0.4-0.4,0.7-0.8,0.7l0,0c-0.4,0-0.8-0.3-0.8-0.7c0-0.3,0.3-0.6,0.6-0.7v-0.7c0-0.1,0-0.2-0.1-0.2
			l-1.7-0.8c-0.2-0.1-0.3-0.3-0.3-0.6V9.2C5,9.1,4.8,8.9,4.8,8.7l0,0c0-0.3,0.3-0.6,0.7-0.6l0,0c0.3,0,0.6,0.3,0.6,0.6
			c0,0.2-0.2,0.5-0.4,0.5v0.5c0,0.1,0,0.2,0.1,0.2c0.1,0.1,1.4,0.5,1.4,0.5V6.7H6.7l0.9-1.3l0.9,1.3H7.8v3.2c0,0,0.7-0.3,0.9-0.3
			c0.2-0.1,0.5-0.3,0.5-0.7V8.4H8.9V7.2h1.2C10.1,7.2,10.1,8.4,10.1,8.4z"/>
		<rect id="rect3767" x="6" y="2" class="st0" width="1" height="1"/>
		<rect id="rect3769" x="8" y="2" class="st0" width="1" height="1"/>
	</g>
</g>
</svg>
