<?xml version="1.0" encoding="utf-8"?>
<!-- Generator: Adobe Illustrator 24.0.0, SVG Export Plug-In . SVG Version: 6.00 Build 0)  -->
<svg version="1.1" id="图层_2_1_" xmlns="http://www.w3.org/2000/svg" xmlns:xlink="http://www.w3.org/1999/xlink" x="0px"
	 y="0px" viewBox="0 0 32 32" style="enable-background:new 0 0 32 32;" xml:space="preserve">
<style type="text/css">
	.st0{fill:#FFFFFF;}
</style>
<g id="U盘">
	<g id="_16">
		<path class="st0" d="M26.1,21h2c1.1,0,2-0.9,2-2v-7c0-1.1-0.9-2-2-2h-2c0-2.2-1.9-4-4.2-4H6.2C3.9,6,2,7.8,2,10v11
			c0,2.2,1.9,4,4.2,4h15.7C24.2,25,26.1,23.2,26.1,21z M28.1,11c0.6,0,1,0.4,1,1v7c0,0.6-0.4,1-1,1h-2v-9H28.1z M6.3,24
			c-1.8,0-3.2-1.3-3.2-3V10c0-1.7,1.4-3,3.2-3h15.6c1.8,0,3.2,1.3,3.2,3v11c0,1.7-1.4,3-3.2,3H6.3z"/>
		<path class="st0" d="M23.1,20v-9c0-1.1-0.9-2-2-2h-14c-1.1,0-2,0.9-2,2v9c0,1.1,0.9,2,2,2h14C22.2,22,23.1,21.1,23.1,20z
			 M16.7,20.8v-1c-0.1,0-0.3,0-0.5,0c-0.5-0.1-2.1-0.2-2.7-1.8c-0.3-0.7-0.3-1.4-0.4-1.9h-3c-0.3,0.7-1,1.2-1.8,1.2
			c-1.1,0-1.9-0.8-1.9-1.8s0.9-1.8,1.9-1.8c0.8,0,1.5,0.5,1.8,1.2h2c0.1-0.8,0.3-2.4,1.4-2.9c0.5-0.2,1.3-0.5,1.9-0.6c0,0,0,0,0-0.1
			c0-0.7,0.6-1.2,1.3-1.2c0.7,0,1.3,0.5,1.3,1.2s-0.6,1.2-1.3,1.2c-0.2,0-0.3,0-0.5-0.1c-0.6,0.1-1.7,0.4-2.2,0.6
			c-0.4,0.2-0.6,1.1-0.7,1.8h5.9v-1.2l3.2,1.8l-3.2,1.8V16h-4.8c0,0.4,0.1,0.9,0.3,1.5c0.2,0.6,0.7,0.9,1.6,1c0.2,0,0.4,0,0.4,0
			v-0.2h2.6v2.4h-2.6V20.8z"/>
		<rect id="rect3767" x="26.1" y="13" class="st0" width="2" height="1"/>
		<rect id="rect3769" x="26.1" y="17" class="st0" width="2" height="1"/>
	</g>
</g>
</svg>
